<mxfile host="app.diagrams.net" agent="Mozilla/5.0 (X11; Ubuntu; Linux x86_64; rv:109.0) Gecko/20100101 Firefox/113.0" version="25.0.3">
  <diagram name="Page-1" id="LEE5tmF4zqWpKEdJajUW">
    <mxGraphModel dx="1385" dy="795" grid="1" gridSize="10" guides="1" tooltips="1" connect="1" arrows="1" fold="1" page="1" pageScale="1" pageWidth="850" pageHeight="1100" math="0" shadow="0">
      <root>
        <mxCell id="0" />
        <mxCell id="1" parent="0" />
        <mxCell id="XzoGnPjsIYAdq6IzS3uf-3" value="" style="edgeStyle=orthogonalEdgeStyle;rounded=0;orthogonalLoop=1;jettySize=auto;html=1;" parent="1" source="XzoGnPjsIYAdq6IzS3uf-1" target="XzoGnPjsIYAdq6IzS3uf-2" edge="1">
          <mxGeometry relative="1" as="geometry" />
        </mxCell>
        <mxCell id="XzoGnPjsIYAdq6IzS3uf-1" value="logic.py" style="ellipse;whiteSpace=wrap;html=1;fillColor=#dae8fc;strokeColor=#6c8ebf;" parent="1" vertex="1">
          <mxGeometry x="220" y="60" width="120" height="80" as="geometry" />
        </mxCell>
        <mxCell id="XzoGnPjsIYAdq6IzS3uf-10" value="" style="edgeStyle=orthogonalEdgeStyle;rounded=0;orthogonalLoop=1;jettySize=auto;html=1;" parent="1" source="XzoGnPjsIYAdq6IzS3uf-2" target="XzoGnPjsIYAdq6IzS3uf-9" edge="1">
          <mxGeometry relative="1" as="geometry" />
        </mxCell>
        <mxCell id="XzoGnPjsIYAdq6IzS3uf-2" value="Fridge.csv" style="shape=parallelogram;perimeter=parallelogramPerimeter;whiteSpace=wrap;html=1;fixedSize=1;fillColor=#dae8fc;strokeColor=#6c8ebf;" parent="1" vertex="1">
          <mxGeometry x="220" y="170" width="120" height="60" as="geometry" />
        </mxCell>
        <mxCell id="XzoGnPjsIYAdq6IzS3uf-8" value="" style="edgeStyle=orthogonalEdgeStyle;rounded=0;orthogonalLoop=1;jettySize=auto;html=1;" parent="1" source="XzoGnPjsIYAdq6IzS3uf-4" target="XzoGnPjsIYAdq6IzS3uf-7" edge="1">
          <mxGeometry relative="1" as="geometry" />
        </mxCell>
        <mxCell id="XzoGnPjsIYAdq6IzS3uf-4" value="publish, qos =1" style="rounded=1;whiteSpace=wrap;html=1;fillColor=#dae8fc;strokeColor=#6c8ebf;" parent="1" vertex="1">
          <mxGeometry x="220" y="360" width="120" height="60" as="geometry" />
        </mxCell>
        <mxCell id="XzoGnPjsIYAdq6IzS3uf-18" value="" style="edgeStyle=orthogonalEdgeStyle;rounded=0;orthogonalLoop=1;jettySize=auto;html=1;" parent="1" source="XzoGnPjsIYAdq6IzS3uf-7" target="XzoGnPjsIYAdq6IzS3uf-17" edge="1">
          <mxGeometry relative="1" as="geometry" />
        </mxCell>
        <mxCell id="XzoGnPjsIYAdq6IzS3uf-7" value="publish to AWS" style="shape=parallelogram;perimeter=parallelogramPerimeter;whiteSpace=wrap;html=1;fixedSize=1;fillColor=#dae8fc;strokeColor=#6c8ebf;" parent="1" vertex="1">
          <mxGeometry x="220" y="450" width="120" height="60" as="geometry" />
        </mxCell>
        <mxCell id="XzoGnPjsIYAdq6IzS3uf-12" value="" style="edgeStyle=orthogonalEdgeStyle;rounded=0;orthogonalLoop=1;jettySize=auto;html=1;" parent="1" source="XzoGnPjsIYAdq6IzS3uf-9" target="XzoGnPjsIYAdq6IzS3uf-4" edge="1">
          <mxGeometry relative="1" as="geometry" />
        </mxCell>
        <mxCell id="XzoGnPjsIYAdq6IzS3uf-9" value="Publish loop" style="ellipse;whiteSpace=wrap;html=1;fillColor=#dae8fc;strokeColor=#6c8ebf;" parent="1" vertex="1">
          <mxGeometry x="220" y="250" width="120" height="80" as="geometry" />
        </mxCell>
        <mxCell id="XzoGnPjsIYAdq6IzS3uf-23" value="" style="edgeStyle=orthogonalEdgeStyle;rounded=0;orthogonalLoop=1;jettySize=auto;html=1;" parent="1" source="XzoGnPjsIYAdq6IzS3uf-17" target="XzoGnPjsIYAdq6IzS3uf-22" edge="1">
          <mxGeometry relative="1" as="geometry" />
        </mxCell>
        <mxCell id="XzoGnPjsIYAdq6IzS3uf-29" value="NO" style="edgeLabel;html=1;align=center;verticalAlign=middle;resizable=0;points=[];" parent="XzoGnPjsIYAdq6IzS3uf-23" vertex="1" connectable="0">
          <mxGeometry x="-0.2" y="-6" relative="1" as="geometry">
            <mxPoint as="offset" />
          </mxGeometry>
        </mxCell>
        <mxCell id="XzoGnPjsIYAdq6IzS3uf-119" value="" style="edgeStyle=orthogonalEdgeStyle;rounded=0;orthogonalLoop=1;jettySize=auto;html=1;" parent="1" source="XzoGnPjsIYAdq6IzS3uf-17" target="XzoGnPjsIYAdq6IzS3uf-118" edge="1">
          <mxGeometry relative="1" as="geometry" />
        </mxCell>
        <mxCell id="XzoGnPjsIYAdq6IzS3uf-132" value="YES" style="edgeLabel;html=1;align=center;verticalAlign=middle;resizable=0;points=[];" parent="XzoGnPjsIYAdq6IzS3uf-119" vertex="1" connectable="0">
          <mxGeometry x="0.5" y="2" relative="1" as="geometry">
            <mxPoint as="offset" />
          </mxGeometry>
        </mxCell>
        <mxCell id="XzoGnPjsIYAdq6IzS3uf-17" value="&lt;div&gt;PUBACK&lt;/div&gt;&lt;div&gt;received&lt;br&gt;&lt;/div&gt;" style="rhombus;whiteSpace=wrap;html=1;fillColor=#f8cecc;strokeColor=#b85450;fontStyle=1" parent="1" vertex="1">
          <mxGeometry x="240" y="530" width="80" height="80" as="geometry" />
        </mxCell>
        <mxCell id="XzoGnPjsIYAdq6IzS3uf-20" style="edgeStyle=orthogonalEdgeStyle;rounded=0;orthogonalLoop=1;jettySize=auto;html=1;entryX=0;entryY=0.5;entryDx=0;entryDy=0;exitX=0;exitY=0.5;exitDx=0;exitDy=0;" parent="1" edge="1">
          <mxGeometry relative="1" as="geometry">
            <mxPoint x="220" y="390" as="targetPoint" />
            <mxPoint x="240" y="670" as="sourcePoint" />
            <Array as="points">
              <mxPoint x="190" y="670" />
              <mxPoint x="190" y="390" />
            </Array>
          </mxGeometry>
        </mxCell>
        <mxCell id="XzoGnPjsIYAdq6IzS3uf-21" value="NO" style="edgeLabel;html=1;align=center;verticalAlign=middle;resizable=0;points=[];" parent="XzoGnPjsIYAdq6IzS3uf-20" vertex="1" connectable="0">
          <mxGeometry x="0.2056" y="3" relative="1" as="geometry">
            <mxPoint as="offset" />
          </mxGeometry>
        </mxCell>
        <mxCell id="XzoGnPjsIYAdq6IzS3uf-28" style="edgeStyle=orthogonalEdgeStyle;rounded=0;orthogonalLoop=1;jettySize=auto;html=1;" parent="1" edge="1">
          <mxGeometry relative="1" as="geometry">
            <mxPoint x="320" y="570" as="targetPoint" />
            <mxPoint x="395" y="590" as="sourcePoint" />
            <Array as="points">
              <mxPoint x="400" y="590" />
              <mxPoint x="400" y="610" />
              <mxPoint x="320" y="610" />
            </Array>
          </mxGeometry>
        </mxCell>
        <mxCell id="XzoGnPjsIYAdq6IzS3uf-22" value="Wait 0.1 seconds" style="rounded=1;whiteSpace=wrap;html=1;fillColor=#f8cecc;strokeColor=#b85450;fontStyle=1" parent="1" vertex="1">
          <mxGeometry x="360" y="540" width="70" height="60" as="geometry" />
        </mxCell>
        <mxCell id="XzoGnPjsIYAdq6IzS3uf-30" value="" style="shape=flexArrow;endArrow=classic;html=1;rounded=0;" parent="1" edge="1">
          <mxGeometry width="50" height="50" relative="1" as="geometry">
            <mxPoint x="480" y="220" as="sourcePoint" />
            <mxPoint x="1010" y="220" as="targetPoint" />
          </mxGeometry>
        </mxCell>
        <mxCell id="XzoGnPjsIYAdq6IzS3uf-31" value="" style="endArrow=none;html=1;rounded=0;" parent="1" edge="1">
          <mxGeometry width="50" height="50" relative="1" as="geometry">
            <mxPoint x="480" y="680" as="sourcePoint" />
            <mxPoint x="480" y="130" as="targetPoint" />
          </mxGeometry>
        </mxCell>
        <mxCell id="XzoGnPjsIYAdq6IzS3uf-34" value="1 SECOND" style="text;html=1;align=center;verticalAlign=middle;whiteSpace=wrap;rounded=0;" parent="1" vertex="1">
          <mxGeometry x="560" y="140" width="80" height="30" as="geometry" />
        </mxCell>
        <mxCell id="XzoGnPjsIYAdq6IzS3uf-35" value="" style="endArrow=none;html=1;rounded=0;" parent="1" edge="1">
          <mxGeometry width="50" height="50" relative="1" as="geometry">
            <mxPoint x="720" y="680" as="sourcePoint" />
            <mxPoint x="720" y="130" as="targetPoint" />
          </mxGeometry>
        </mxCell>
        <mxCell id="XzoGnPjsIYAdq6IzS3uf-38" value="&lt;b&gt;PUBLISH&lt;/b&gt;" style="ellipse;whiteSpace=wrap;html=1;rotation=90;" parent="1" vertex="1">
          <mxGeometry x="480" y="230" width="40" height="40" as="geometry" />
        </mxCell>
        <mxCell id="XzoGnPjsIYAdq6IzS3uf-40" value="&lt;b&gt;PUBLISH&lt;/b&gt;" style="ellipse;whiteSpace=wrap;html=1;rotation=90;" parent="1" vertex="1">
          <mxGeometry x="520" y="230" width="40" height="40" as="geometry" />
        </mxCell>
        <mxCell id="XzoGnPjsIYAdq6IzS3uf-41" value="&lt;b&gt;PUBLISH&lt;/b&gt;" style="ellipse;whiteSpace=wrap;html=1;rotation=90;" parent="1" vertex="1">
          <mxGeometry x="560" y="230" width="40" height="40" as="geometry" />
        </mxCell>
        <mxCell id="XzoGnPjsIYAdq6IzS3uf-42" value="" style="endArrow=none;dashed=1;html=1;dashPattern=1 3;strokeWidth=6;rounded=0;strokeColor=#FF0000;curved=0;" parent="1" edge="1">
          <mxGeometry width="50" height="50" relative="1" as="geometry">
            <mxPoint x="600" y="330" as="sourcePoint" />
            <mxPoint x="600" y="200" as="targetPoint" />
          </mxGeometry>
        </mxCell>
        <mxCell id="XzoGnPjsIYAdq6IzS3uf-43" value="" style="endArrow=none;dashed=1;html=1;dashPattern=1 3;strokeWidth=6;rounded=0;strokeColor=#FF0000;curved=0;" parent="1" edge="1">
          <mxGeometry width="50" height="50" relative="1" as="geometry">
            <mxPoint x="840" y="330" as="sourcePoint" />
            <mxPoint x="840" y="200" as="targetPoint" />
          </mxGeometry>
        </mxCell>
        <mxCell id="XzoGnPjsIYAdq6IzS3uf-44" value="" style="endArrow=none;html=1;rounded=0;" parent="1" edge="1">
          <mxGeometry width="50" height="50" relative="1" as="geometry">
            <mxPoint x="960" y="680" as="sourcePoint" />
            <mxPoint x="960" y="130" as="targetPoint" />
          </mxGeometry>
        </mxCell>
        <mxCell id="XzoGnPjsIYAdq6IzS3uf-45" value="1 SECOND" style="text;html=1;align=center;verticalAlign=middle;whiteSpace=wrap;rounded=0;" parent="1" vertex="1">
          <mxGeometry x="800" y="140" width="80" height="30" as="geometry" />
        </mxCell>
        <mxCell id="XzoGnPjsIYAdq6IzS3uf-49" value="&lt;font color=&quot;#ff0000&quot;&gt;SLEEP 1 SECOND&lt;/font&gt;" style="text;html=1;align=center;verticalAlign=middle;whiteSpace=wrap;rounded=0;" parent="1" vertex="1">
          <mxGeometry x="600" y="230" width="140" height="30" as="geometry" />
        </mxCell>
        <mxCell id="XzoGnPjsIYAdq6IzS3uf-50" value="&lt;b&gt;PUBLISH&lt;/b&gt;" style="ellipse;whiteSpace=wrap;html=1;rotation=90;" parent="1" vertex="1">
          <mxGeometry x="840" y="230" width="40" height="40" as="geometry" />
        </mxCell>
        <mxCell id="XzoGnPjsIYAdq6IzS3uf-51" value="&lt;b&gt;PUBLISH&lt;/b&gt;" style="ellipse;whiteSpace=wrap;html=1;rotation=90;" parent="1" vertex="1">
          <mxGeometry x="880" y="230" width="40" height="40" as="geometry" />
        </mxCell>
        <mxCell id="XzoGnPjsIYAdq6IzS3uf-52" value="&lt;b&gt;PUBLISH&lt;/b&gt;" style="ellipse;whiteSpace=wrap;html=1;rotation=90;" parent="1" vertex="1">
          <mxGeometry x="920" y="230" width="40" height="40" as="geometry" />
        </mxCell>
        <mxCell id="XzoGnPjsIYAdq6IzS3uf-53" value="&lt;u&gt;&lt;b&gt;Current Fix&lt;/b&gt;&lt;/u&gt;" style="text;html=1;align=center;verticalAlign=middle;whiteSpace=wrap;rounded=0;" parent="1" vertex="1">
          <mxGeometry x="480" y="360" width="110" height="30" as="geometry" />
        </mxCell>
        <mxCell id="XzoGnPjsIYAdq6IzS3uf-54" value="&lt;b&gt;PUBLISH&lt;/b&gt;" style="ellipse;whiteSpace=wrap;html=1;rotation=90;" parent="1" vertex="1">
          <mxGeometry x="480" y="410" width="40" height="40" as="geometry" />
        </mxCell>
        <mxCell id="XzoGnPjsIYAdq6IzS3uf-55" value="&lt;b&gt;PUBLISH&lt;/b&gt;" style="ellipse;whiteSpace=wrap;html=1;rotation=90;" parent="1" vertex="1">
          <mxGeometry x="520" y="410" width="40" height="40" as="geometry" />
        </mxCell>
        <mxCell id="XzoGnPjsIYAdq6IzS3uf-56" value="&lt;b&gt;PUBLISH&lt;/b&gt;" style="ellipse;whiteSpace=wrap;html=1;rotation=90;" parent="1" vertex="1">
          <mxGeometry x="560" y="410" width="40" height="40" as="geometry" />
        </mxCell>
        <mxCell id="XzoGnPjsIYAdq6IzS3uf-57" value="" style="endArrow=none;dashed=1;html=1;dashPattern=1 3;strokeWidth=6;rounded=0;strokeColor=#FF0000;curved=0;" parent="1" edge="1">
          <mxGeometry width="50" height="50" relative="1" as="geometry">
            <mxPoint x="680" y="510" as="sourcePoint" />
            <mxPoint x="680" y="380" as="targetPoint" />
          </mxGeometry>
        </mxCell>
        <mxCell id="XzoGnPjsIYAdq6IzS3uf-58" value="" style="endArrow=none;dashed=1;html=1;dashPattern=1 3;strokeWidth=6;rounded=0;strokeColor=#FF0000;curved=0;" parent="1" edge="1">
          <mxGeometry width="50" height="50" relative="1" as="geometry">
            <mxPoint x="920" y="510" as="sourcePoint" />
            <mxPoint x="920" y="380" as="targetPoint" />
          </mxGeometry>
        </mxCell>
        <mxCell id="XzoGnPjsIYAdq6IzS3uf-59" value="&lt;font color=&quot;#ff0000&quot;&gt;SLEEP 1 SECOND&lt;/font&gt;" style="text;html=1;align=center;verticalAlign=middle;whiteSpace=wrap;rounded=0;" parent="1" vertex="1">
          <mxGeometry x="690" y="390" width="140" height="30" as="geometry" />
        </mxCell>
        <mxCell id="XzoGnPjsIYAdq6IzS3uf-60" value="&lt;b&gt;PUBLISH&lt;/b&gt;" style="ellipse;whiteSpace=wrap;html=1;rotation=90;" parent="1" vertex="1">
          <mxGeometry x="920" y="410" width="40" height="40" as="geometry" />
        </mxCell>
        <mxCell id="XzoGnPjsIYAdq6IzS3uf-61" value="&lt;b&gt;PUBLISH&lt;/b&gt;" style="ellipse;whiteSpace=wrap;html=1;rotation=90;" parent="1" vertex="1">
          <mxGeometry x="960" y="410" width="40" height="40" as="geometry" />
        </mxCell>
        <mxCell id="XzoGnPjsIYAdq6IzS3uf-62" value="&lt;b&gt;PUBLISH&lt;/b&gt;" style="ellipse;whiteSpace=wrap;html=1;rotation=90;" parent="1" vertex="1">
          <mxGeometry x="1000" y="410" width="40" height="40" as="geometry" />
        </mxCell>
        <mxCell id="XzoGnPjsIYAdq6IzS3uf-63" value="" style="endArrow=none;dashed=1;html=1;dashPattern=1 3;strokeWidth=6;rounded=0;strokeColor=#003CFF;curved=0;" parent="1" edge="1">
          <mxGeometry width="50" height="50" relative="1" as="geometry">
            <mxPoint x="600" y="510" as="sourcePoint" />
            <mxPoint x="600" y="380" as="targetPoint" />
          </mxGeometry>
        </mxCell>
        <mxCell id="XzoGnPjsIYAdq6IzS3uf-65" value="" style="endArrow=none;dashed=1;html=1;dashPattern=1 3;strokeWidth=6;rounded=0;strokeColor=#003CFF;curved=0;" parent="1" edge="1">
          <mxGeometry width="50" height="50" relative="1" as="geometry">
            <mxPoint x="669.5" y="510" as="sourcePoint" />
            <mxPoint x="669.5" y="380" as="targetPoint" />
          </mxGeometry>
        </mxCell>
        <mxCell id="XzoGnPjsIYAdq6IzS3uf-66" value="NETWORK ISSUE" style="ellipse;whiteSpace=wrap;html=1;" parent="1" vertex="1">
          <mxGeometry x="600" y="400" width="60" height="50" as="geometry" />
        </mxCell>
        <mxCell id="XzoGnPjsIYAdq6IzS3uf-67" value="&lt;u&gt;&lt;b&gt;BEFORE FIX&lt;br&gt;&lt;/b&gt;&lt;/u&gt;" style="text;html=1;align=center;verticalAlign=middle;whiteSpace=wrap;rounded=0;" parent="1" vertex="1">
          <mxGeometry x="480" y="180" width="110" height="30" as="geometry" />
        </mxCell>
        <mxCell id="XzoGnPjsIYAdq6IzS3uf-121" value="" style="edgeStyle=orthogonalEdgeStyle;rounded=0;orthogonalLoop=1;jettySize=auto;html=1;" parent="1" source="XzoGnPjsIYAdq6IzS3uf-118" target="XzoGnPjsIYAdq6IzS3uf-120" edge="1">
          <mxGeometry relative="1" as="geometry" />
        </mxCell>
        <mxCell id="XzoGnPjsIYAdq6IzS3uf-131" value="YES" style="edgeLabel;html=1;align=center;verticalAlign=middle;resizable=0;points=[];" parent="XzoGnPjsIYAdq6IzS3uf-121" vertex="1" connectable="0">
          <mxGeometry x="-0.8" y="2" relative="1" as="geometry">
            <mxPoint as="offset" />
          </mxGeometry>
        </mxCell>
        <mxCell id="XzoGnPjsIYAdq6IzS3uf-118" value="PUBLISH 3 TIMES" style="rhombus;whiteSpace=wrap;html=1;fillColor=#dae8fc;strokeColor=#6c8ebf;" parent="1" vertex="1">
          <mxGeometry x="240" y="630" width="80" height="80" as="geometry" />
        </mxCell>
        <mxCell id="XzoGnPjsIYAdq6IzS3uf-120" value="Wait 1 second" style="whiteSpace=wrap;html=1;fillColor=#dae8fc;strokeColor=#6c8ebf;" parent="1" vertex="1">
          <mxGeometry x="220" y="740" width="120" height="60" as="geometry" />
        </mxCell>
        <mxCell id="XzoGnPjsIYAdq6IzS3uf-129" style="edgeStyle=orthogonalEdgeStyle;rounded=0;orthogonalLoop=1;jettySize=auto;html=1;exitX=0;exitY=0.5;exitDx=0;exitDy=0;" parent="1" edge="1">
          <mxGeometry relative="1" as="geometry">
            <mxPoint x="220.00224617320376" y="290" as="targetPoint" />
            <mxPoint x="218.79" y="762" as="sourcePoint" />
            <Array as="points">
              <mxPoint x="130" y="762" />
              <mxPoint x="130" y="290" />
            </Array>
          </mxGeometry>
        </mxCell>
        <mxCell id="NQlRJPXXNNyNdeHCiKGi-3" value="&lt;b&gt;PUBLISH&lt;/b&gt;" style="ellipse;whiteSpace=wrap;html=1;rotation=90;" vertex="1" parent="1">
          <mxGeometry x="480" y="600" width="40" height="40" as="geometry" />
        </mxCell>
        <mxCell id="NQlRJPXXNNyNdeHCiKGi-4" value="&lt;b&gt;PUBLISH&lt;/b&gt;" style="ellipse;whiteSpace=wrap;html=1;rotation=90;" vertex="1" parent="1">
          <mxGeometry x="520" y="600" width="40" height="40" as="geometry" />
        </mxCell>
        <mxCell id="NQlRJPXXNNyNdeHCiKGi-5" value="&lt;b&gt;PUBLISH&lt;/b&gt;" style="ellipse;whiteSpace=wrap;html=1;rotation=90;" vertex="1" parent="1">
          <mxGeometry x="560" y="600" width="40" height="40" as="geometry" />
        </mxCell>
        <mxCell id="NQlRJPXXNNyNdeHCiKGi-10" value="&lt;b&gt;PUBLISH&lt;/b&gt;" style="ellipse;whiteSpace=wrap;html=1;rotation=90;" vertex="1" parent="1">
          <mxGeometry x="720" y="600" width="40" height="40" as="geometry" />
        </mxCell>
        <mxCell id="NQlRJPXXNNyNdeHCiKGi-11" value="&lt;b&gt;PUBLISH&lt;/b&gt;" style="ellipse;whiteSpace=wrap;html=1;rotation=90;" vertex="1" parent="1">
          <mxGeometry x="760" y="600" width="40" height="40" as="geometry" />
        </mxCell>
        <mxCell id="NQlRJPXXNNyNdeHCiKGi-12" value="&lt;b&gt;PUBLISH&lt;/b&gt;" style="ellipse;whiteSpace=wrap;html=1;rotation=90;" vertex="1" parent="1">
          <mxGeometry x="800" y="600" width="40" height="40" as="geometry" />
        </mxCell>
        <mxCell id="NQlRJPXXNNyNdeHCiKGi-14" value="&lt;u&gt;&lt;b&gt;OPTIMAL&lt;/b&gt;&lt;/u&gt;" style="text;html=1;align=center;verticalAlign=middle;whiteSpace=wrap;rounded=0;" vertex="1" parent="1">
          <mxGeometry x="480" y="540" width="110" height="30" as="geometry" />
        </mxCell>
      </root>
    </mxGraphModel>
  </diagram>
</mxfile>
